# File created by Blade
# Date/Time:  Thu Jan 22 19:49:10 2015
#---------------------------------------------------------
:version 1.10
:name HOM
:units
  mass 1.0
  length 1.000000
  angle deg
:documentation
     Acclaim Skeleton File
:root
   axis xyz
   order TX TY TZ RX RY RZ
   position 0.000000 0.000000 0.000000
   orientation 0 0 0
:bonedata
   begin
      id 1
      name RightUpLeg_dum
      direction -1.000000 0.000000 0.000000
      length 4.478084
      axis 0.0 0.0 0.0 xyz
   end
   begin
      id 2
      name LeftUpLeg_dum
      direction 1.000000 0.000000 0.000000
      length 4.478084
      axis 0.0 0.0 0.0 xyz
   end
   begin
      id 3
      name Spine_dum
      direction 0.000000 1.000000 0.000000
      length 6.068208
      axis 0.0 0.0 0.0 xyz
   end
   begin
      id 4
      name RightUpLeg
      direction 0.000000 -1.000000 0.000000
      length 16.405774
      axis 0.0 0.0 0.0 xyz
      dof rx ry rz
   end
   begin
      id 5
      name RightLeg
      direction 0.000000 -1.000000 0.000000
      length 14.644143
      axis 0.0 0.0 0.0 xyz
      dof rx ry rz
   end
   begin
      id 6
      name RightFoot
      direction 0.000000 -0.258819 0.965926
      length 5.806150
      axis 15.0 0.0 0.0 xyz
      dof rx ry rz
   end
   begin
      id 7
      name RightToeBase
      direction 0.000000 0.000000 1.000000
      length 2.952750
      axis 0.0 0.0 0.0 xyz
      dof rx ry rz
   end
   begin
      id 8
      name LeftUpLeg
      direction 0.000000 -1.000000 0.000000
      length 16.405774
      axis 0.0 0.0 0.0 xyz
      dof rx ry rz
   end
   begin
      id 9
      name LeftLeg
      direction 0.000000 -1.000000 0.000000
      length 14.644143
      axis 0.0 0.0 0.0 xyz
      dof rx ry rz
   end
   begin
      id 10
      name LeftFoot
      direction 0.000000 -0.258819 0.965926
      length 5.806150
      axis 15.0 0.0 0.0 xyz
      dof rx ry rz
   end
   begin
      id 11
      name LeftToeBase
      direction 0.000000 0.000000 1.000000
      length 2.952750
      axis 0.0 0.0 0.0 xyz
      dof rx ry rz
   end
   begin
      id 12
      name Spine
      direction 0.000000 1.000000 0.000000
      length 0.000000
      axis 0.0 0.0 0.0 xyz
      dof rx ry rz
   end
   begin
      id 13
      name Spine_dum1
      direction 0.000000 1.000000 0.000000
      length 10.013923
      axis 0.0 0.0 0.0 xyz
   end
   begin
      id 14
      name Spine_dum2
      direction 0.000000 1.000000 0.000000
      length 10.013923
      axis 0.0 0.0 0.0 xyz
   end
   begin
      id 15
      name Spine_dum3
      direction 0.000000 1.000000 0.000000
      length 15.777476
      axis 0.0 0.0 0.0 xyz
   end
   begin
      id 16
      name RightShoulder
      direction -1.000000 0.000000 0.000000
      length 7.190220
      axis 0.0 0.0 90.0 xyz
      dof rx ry rz
   end
   begin
      id 17
      name RightArm
      direction -1.000000 0.000000 0.000000
      length 10.177469
      axis 0.0 0.0 90.0 xyz
      dof rx ry rz
   end
   begin
      id 18
      name RightForeArm
      direction -1.000000 0.000000 0.000000
      length 8.392114
      axis 0.0 0.0 90.0 xyz
      dof ry rz rx
   end
   begin
      id 19
      name RightHand
      direction -1.000000 0.000000 0.000000
      length 0.000000
      axis 0.0 0.0 90.0 xyz
      dof rx ry rz
   end
   begin
      id 20
      name RightHand_dum1
      direction -1.000000 0.000000 0.000000
      length 3.937000
      axis 0.0 0.0 90.0 xyz
   end
   begin
      id 21
      name RightHand_dum2
      direction 0.000000 0.000000 0.000000
      length 0.000000
      axis 0.0 0.0 90.0 xyz
   end
   begin
      id 22
      name RightHandThumb1
      direction 0.000000 0.000000 1.000000
      length 3.937000
      axis 0.0 0.0 90.0 xyz
      dof rx rz ry
   end
   begin
      id 23
      name LeftShoulder
      direction 1.000000 0.000000 0.000000
      length 7.190220
      axis 0.0 0.0 -90.0 xyz
      dof rx ry rz
   end
   begin
      id 24
      name LeftArm
      direction 1.000000 0.000000 0.000000
      length 10.177469
      axis 0.0 0.0 -90.0 xyz
      dof rx ry rz
   end
   begin
      id 25
      name LeftForeArm
      direction 1.000000 0.000000 0.000000
      length 8.392114
      axis 0.0 0.0 -90.0 xyz
      dof ry rz rx
   end
   begin
      id 26
      name LeftHand
      direction 1.000000 0.000000 0.000000
      length 0.000000
      axis 0.0 0.0 -90.0 xyz
      dof rx ry rz
   end
   begin
      id 27
      name LeftHand_dum1
      direction 1.000000 0.000000 0.000000
      length 3.937000
      axis 0.0 0.0 -90.0 xyz
   end
   begin
      id 28
      name LeftHand_dum2
      direction 0.000000 0.000000 0.000000
      length 0.000000
      axis 0.0 0.0 -90.0 xyz
   end
   begin
      id 29
      name LeftHandThumb1
      direction 0.000000 0.000000 1.000000
      length 3.937000
      axis 0.0 0.0 -90.0 xyz
      dof rx rz ry
   end
   begin
      id 30
      name Head
      direction 0.000000 1.000000 0.000000
      length 4.527550
      axis 0.0 0.0 0.0 xyz
      dof rx ry rz
   end
:hierarchy
   begin
      root RightUpLeg_dum LeftUpLeg_dum Spine_dum
      RightUpLeg_dum RightUpLeg
      LeftUpLeg_dum LeftUpLeg
      Spine_dum Spine
      RightUpLeg RightLeg
      RightLeg RightFoot
      RightFoot RightToeBase
      LeftUpLeg LeftLeg
      LeftLeg LeftFoot
      LeftFoot LeftToeBase
      Spine Spine_dum1 Spine_dum2 Spine_dum3
      Spine_dum1 RightShoulder
      Spine_dum2 LeftShoulder
      Spine_dum3 Head
      RightShoulder RightArm
      RightArm RightForeArm
      RightForeArm RightHand
      RightHand RightHand_dum1 RightHand_dum2
      RightHand_dum2 RightHandThumb1
      LeftShoulder LeftArm
      LeftArm LeftForeArm
      LeftForeArm LeftHand
      LeftHand LeftHand_dum1 LeftHand_dum2
      LeftHand_dum2 LeftHandThumb1
   end

# File created by Blade
# Date/Time:  Thu Jan 22 19:49:01 2015
# Frame Rate: 120.000 fps
#------------------------------------------------------
:FULLY-SPECIFIED
:DEGREES
843
root -1.437214 2.780904 -11.672358 -25.398170 -9.355748 -6.162786
RightUpLeg -116.008766 -9.990343 -0.668331
RightLeg 134.890576 -0.000000 -0.000000
RightFoot -1.304460 1.194874 -16.808041
RightToeBase -5.584469 -0.000000 0.000000
LeftUpLeg -67.731994 7.719458 7.855402
LeftLeg 10.684679 -0.000000 -0.000000
LeftFoot 10.493425 8.182012 -19.113263
LeftToeBase 4.944996 -0.000000 -0.000000
Spine 31.776802 8.614968 -0.990769
RightShoulder -9.813520 -17.993794 -11.047531
RightArm 22.406721 -41.739760 64.081554
RightForeArm 53.699068 -0.000000 40.605968
RightHand -15.162786 0.000000 11.587078
RightHandThumb1 -24.326973 -0.000000 -32.862282
LeftShoulder -18.846448 21.276831 19.468404
LeftArm -15.378045 32.662775 -99.671118
LeftForeArm 7.464360 -0.000000 63.562378
LeftHand -23.216261 -0.000000 5.924341
LeftHandThumb1 -26.253704 0.000000 33.147579
Head -15.624548 0.816530 4.833196
844
root -1.443212 2.782389 -11.674792 -25.517216 -9.332374 -6.328239
RightUpLeg -115.848945 -9.928592 -0.686563
RightLeg 134.916269 -0.000000 -0.000000
RightFoot -1.600050 1.437396 -16.740696
RightToeBase -6.355508 -0.000000 0.000000
LeftUpLeg -67.074268 7.693984 7.695733
LeftLeg 9.968386 -0.000000 -0.000000
LeftFoot 10.799130 8.206163 -19.005366
LeftToeBase 4.709018 -0.000000 -0.000000
Spine 31.857334 8.682560 -0.958143
RightShoulder -9.783398 -17.805756 -10.936150
RightArm 22.465435 -41.791147 64.102567
RightForeArm 53.633252 -0.000000 40.167697
RightHand -15.244947 -0.000000 11.696677
RightHandThumb1 -24.326973 -0.000000 -32.862282
LeftShoulder -18.908839 21.221069 19.440698
LeftArm -15.515350 33.186192 -99.590515
LeftForeArm 7.188036 -0.000000 63.885849
LeftHand -23.417826 -0.000000 6.652018
LeftHandThumb1 -26.253704 0.000000 33.147579
Head -15.497845 0.669595 5.031661
845
root -1.442350 2.781706 -11.665579 -25.666278 -9.330246 -6.451940
RightUpLeg -115.679283 -9.841890 -0.690422
RightLeg 134.973901 -0.000000 -0.000000
RightFoot -1.967030 1.534911 -17.092172
RightToeBase -6.536269 -0.000000 0.000000
LeftUpLeg -66.382452 7.584683 7.713903
LeftLeg 9.366611 -0.000000 -0.000000
LeftFoot 10.892047 8.376112 -18.653373
LeftToeBase 3.573315 -0.000000 -0.000000
Spine 31.913255 8.815965 -0.929466
RightShoulder -9.752100 -17.710579 -10.793269
RightArm 22.554092 -41.765256 64.067570
RightForeArm 53.621091 -0.000000 39.727076
RightHand -15.519318 -0.000000 12.070933
RightHandThumb1 -24.326973 -0.000000 -32.862282
LeftShoulder -18.907178 21.310688 19.450695
LeftArm -15.556149 33.588097 -99.508104
LeftForeArm 7.082017 -0.000000 64.237605
LeftHand -23.606748 -0.000000 6.978769
LeftHandThumb1 -26.253704 0.000000 33.147579
Head -15.291851 0.478223 5.225417
846
root -1.444988 2.782225 -11.659749 -25.801475 -9.348190 -6.584485
RightUpLeg -115.525152 -9.708332 -0.652453
RightLeg 134.999936 -0.000000 -0.000000
RightFoot -2.372399 1.649154 -17.014711
RightToeBase -6.715935 -0.000000 0.000000
LeftUpLeg -65.730374 7.487639 7.737123
LeftLeg 8.501459 -0.000000 -0.000000
LeftFoot 11.726896 8.880444 -18.394944
LeftToeBase 3.304613 -0.000000 -0.000000
Spine 31.992383 8.974761 -0.869023
RightShoulder -9.763551 -17.640915 -10.616511
RightArm 22.736417 -41.799961 63.937889
RightForeArm 53.743846 -0.000000 39.353000
RightHand -15.707531 -0.000000 11.976225
RightHandThumb1 -24.326973 -0.000000 -32.862282
LeftShoulder -18.872985 21.320305 19.461875
LeftArm -15.670276 33.820499 -99.436926
LeftForeArm 6.991317 0.000000 64.629633
LeftHand -23.724171 -0.000000 7.269592
LeftHandThumb1 -26.253704 0.000000 33.147579
Head -15.128277 0.294417 5.406221
847
root -1.447575 2.783076 -11.662484 -25.868679 -9.359139 -6.735508
RightUpLeg -115.416144 -9.580702 -0.593346
RightLeg 134.986284 -0.000000 -0.000000
RightFoot -2.786334 1.794902 -17.117967
RightToeBase -7.217320 -0.000000 0.000000
LeftUpLeg -65.188109 7.342720 7.881554
LeftLeg 7.370732 -0.000000 -0.000000
LeftFoot 13.310071 9.391775 -17.561303
LeftToeBase 3.564408 -0.000000 -0.000000
Spine 32.037535 9.094260 -0.790119
RightShoulder -9.731614 -17.530946 -10.475196
RightArm 22.798447 -41.752074 63.943290
RightForeArm 53.516502 -0.000000 38.922068
RightHand -15.722661 -0.000000 12.330331
RightHandThumb1 -24.326973 -0.000000 -32.862282
LeftShoulder -18.855132 21.284083 19.408062
LeftArm -15.807511 33.883303 -99.323914
LeftForeArm 6.889608 -0.000000 65.085050
LeftHand -23.966311 -0.000000 7.262254
LeftHandThumb1 -26.253704 0.000000 33.147579
Head -15.070815 0.125783 5.493290
848
root -1.449370 2.780111 -11.671503 -25.867663 -9.342566 -6.899165
RightUpLeg -115.379431 -9.481561 -0.549629
RightLeg 134.932558 -0.000000 -0.000000
RightFoot -3.226103 2.074907 -17.085708
RightToeBase -7.088415 -0.000000 0.000000
LeftUpLeg -64.777219 7.033282 8.425206
LeftLeg 6.440424 -0.000000 -0.000000
LeftFoot 14.493546 9.514313 -16.702519
LeftToeBase 4.154625 -0.000000 -0.000000
Spine 32.034502 9.210394 -0.686920
RightShoulder -9.736791 -17.473350 -10.362746
RightArm 22.920319 -41.777428 63.873162
RightForeArm 53.381243 -0.000000 38.621023
RightHand -15.877350 -0.000000 12.503163
RightHandThumb1 -24.326973 -0.000000 -32.862282
LeftShoulder -18.791867 21.262733 19.343709
LeftArm -15.908964 33.886148 -99.178839
LeftForeArm 6.825499 0.000000 65.549053
LeftHand -24.097928 0.000000 7.301235
LeftHandThumb1 -26.253704 0.000000 33.147579
Head -15.017385 -0.073595 5.592399
849
root -1.442803 2.774209 -11.678751 -25.844773 -9.328409 -7.030386
RightUpLeg -115.391014 -9.392584 -0.526584
RightLeg 134.840526 -0.000000 -0.000000
RightFoot -3.614104 2.329470 -17.162782
RightToeBase -7.212180 -0.000000 0.000000
LeftUpLeg -64.485268 6.556505 9.329250
LeftLeg 5.971856 -0.000000 -0.000000
LeftFoot 14.748405 9.331439 -16.255754
LeftToeBase 4.096899 -0.000000 -0.000000
Spine 31.998632 9.317250 -0.593686
RightShoulder -9.700059 -17.430383 -10.314087
RightArm 22.931310 -41.824593 63.853260
RightForeArm 53.219063 -0.000000 38.432752
RightHand -15.944641 0.000000 12.591382
RightHandThumb1 -24.326973 -0.000000 -32.862282
LeftShoulder -18.759121 21.279327 19.276697
LeftArm -15.977248 33.861800 -99.040315
LeftForeArm 6.754346 -0.000000 65.969011
LeftHand -24.145398 -0.000000 7.151589
LeftHandThumb1 -26.253704 0.000000 33.147579
Head -14.941770 -0.318451 5.600313
850
root -1.436371 2.769546 -11.678053 -25.881370 -9.385604 -7.113378
RightUpLeg -115.367431 -9.219486 -0.508566
RightLeg 134.712918 -0.000000 -0.000000
RightFoot -3.931590 2.566336 -17.402971
RightToeBase -7.848628 -0.000000 0.000000
LeftUpLeg -64.270769 6.154094 10.150799
LeftLeg 5.848628 -0.000000 -0.000000
LeftFoot 14.712464 8.724268 -15.174713
LeftToeBase 3.017555 -0.000000 -0.000000
Spine 32.021297 9.486559 -0.509750
RightShoulder -9.644650 -17.409271 -10.300995
RightArm 22.915857 -41.908251 63.815920
RightForeArm 53.251506 -0.000000 38.332689
RightHand -15.988128 -0.000000 12.612750
RightHandThumb1 -24.326973 -0.000000 -32.862282
LeftShoulder -18.787492 21.289854 19.193851
LeftArm -16.052139 33.843202 -98.893604
LeftForeArm 6.664259 -0.000000 66.375527
LeftHand -24.216387 -0.000000 6.940728
LeftHandThumb1 -26.253704 0.000000 33.147579
Head -14.910686 -0.476574 5.613676
851
root -1.430025 2.765402 -11.683113 -25.917523 -9.429616 -7.179651
RightUpLeg -115.337378 -9.031115 -0.516502
RightLeg 134.523596 -0.000000 -0.000000
RightFoot -4.252699 2.787179 -17.334019
RightToeBase -7.516723 -0.000000 0.000000
LeftUpLeg -64.202416 5.821633 10.742758
LeftLeg 5.849391 -0.000000 -0.000000
LeftFoot 14.475976 8.573505 -15.305119
LeftToeBase 3.265045 -0.000000 -0.000000
Spine 32.068442 9.702485 -0.423904
RightShoulder -9.629897 -17.458102 -10.286296
RightArm 22.982376 -41.994342 63.728202
RightForeArm 53.234325 0.000000 38.224971
RightHand -15.864657 -0.000000 12.684008
RightHandThumb1 -24.326973 -0.000000 -32.862282
LeftShoulder -18.732863 21.235110 19.193608
LeftArm -16.155891 33.826271 -98.827286
LeftForeArm 6.554819 0.000000 66.711673
LeftHand -24.240799 -0.000000 6.773348
LeftHandThumb1 -26.253704 0.000000 33.147579
Head -14.871240 -0.684474 5.637443
